<mxfile host="Electron" agent="Mozilla/5.0 (Windows NT 10.0; Win64; x64) AppleWebKit/537.36 (KHTML, like Gecko) draw.io/26.2.15 Chrome/134.0.6998.205 Electron/35.2.1 Safari/537.36" version="26.2.15">
  <diagram id="C5RBs43oDa-KdzZeNtuy" name="Page-1">
    <mxGraphModel dx="1281" dy="634" grid="1" gridSize="10" guides="1" tooltips="1" connect="1" arrows="1" fold="1" page="1" pageScale="1" pageWidth="827" pageHeight="1169" math="0" shadow="0">
      <root>
        <mxCell id="WIyWlLk6GJQsqaUBKTNV-0" />
        <mxCell id="WIyWlLk6GJQsqaUBKTNV-1" parent="WIyWlLk6GJQsqaUBKTNV-0" />
        <mxCell id="nywED3WVq3rmi00gd_Ra-37" style="edgeStyle=orthogonalEdgeStyle;rounded=0;orthogonalLoop=1;jettySize=auto;html=1;entryX=0.5;entryY=0;entryDx=0;entryDy=0;" edge="1" parent="WIyWlLk6GJQsqaUBKTNV-1" source="nywED3WVq3rmi00gd_Ra-1" target="nywED3WVq3rmi00gd_Ra-26">
          <mxGeometry relative="1" as="geometry" />
        </mxCell>
        <mxCell id="nywED3WVq3rmi00gd_Ra-38" style="edgeStyle=orthogonalEdgeStyle;rounded=0;orthogonalLoop=1;jettySize=auto;html=1;" edge="1" parent="WIyWlLk6GJQsqaUBKTNV-1" source="nywED3WVq3rmi00gd_Ra-1" target="nywED3WVq3rmi00gd_Ra-27">
          <mxGeometry relative="1" as="geometry" />
        </mxCell>
        <mxCell id="nywED3WVq3rmi00gd_Ra-39" style="edgeStyle=orthogonalEdgeStyle;rounded=0;orthogonalLoop=1;jettySize=auto;html=1;entryX=0.5;entryY=0;entryDx=0;entryDy=0;" edge="1" parent="WIyWlLk6GJQsqaUBKTNV-1" source="nywED3WVq3rmi00gd_Ra-1">
          <mxGeometry relative="1" as="geometry">
            <mxPoint x="480" y="210" as="targetPoint" />
          </mxGeometry>
        </mxCell>
        <mxCell id="nywED3WVq3rmi00gd_Ra-1" value="Proxmox Fisic" style="rounded=0;whiteSpace=wrap;html=1;" vertex="1" parent="WIyWlLk6GJQsqaUBKTNV-1">
          <mxGeometry x="310" y="60" width="120" height="60" as="geometry" />
        </mxCell>
        <mxCell id="nywED3WVq3rmi00gd_Ra-41" style="edgeStyle=orthogonalEdgeStyle;rounded=0;orthogonalLoop=1;jettySize=auto;html=1;entryX=0;entryY=0.5;entryDx=0;entryDy=0;" edge="1" parent="WIyWlLk6GJQsqaUBKTNV-1" source="nywED3WVq3rmi00gd_Ra-26" target="nywED3WVq3rmi00gd_Ra-36">
          <mxGeometry relative="1" as="geometry" />
        </mxCell>
        <mxCell id="nywED3WVq3rmi00gd_Ra-26" value="Node1" style="ellipse;whiteSpace=wrap;html=1;aspect=fixed;" vertex="1" parent="WIyWlLk6GJQsqaUBKTNV-1">
          <mxGeometry x="220" y="210" width="80" height="80" as="geometry" />
        </mxCell>
        <mxCell id="nywED3WVq3rmi00gd_Ra-40" style="edgeStyle=orthogonalEdgeStyle;rounded=0;orthogonalLoop=1;jettySize=auto;html=1;entryX=0.5;entryY=0;entryDx=0;entryDy=0;" edge="1" parent="WIyWlLk6GJQsqaUBKTNV-1" source="nywED3WVq3rmi00gd_Ra-27" target="nywED3WVq3rmi00gd_Ra-36">
          <mxGeometry relative="1" as="geometry" />
        </mxCell>
        <mxCell id="nywED3WVq3rmi00gd_Ra-27" value="Node2" style="ellipse;whiteSpace=wrap;html=1;aspect=fixed;" vertex="1" parent="WIyWlLk6GJQsqaUBKTNV-1">
          <mxGeometry x="330" y="210" width="80" height="80" as="geometry" />
        </mxCell>
        <mxCell id="nywED3WVq3rmi00gd_Ra-28" value="Node3" style="ellipse;whiteSpace=wrap;html=1;aspect=fixed;" vertex="1" parent="WIyWlLk6GJQsqaUBKTNV-1">
          <mxGeometry x="440" y="210" width="80" height="80" as="geometry" />
        </mxCell>
        <mxCell id="nywED3WVq3rmi00gd_Ra-54" style="edgeStyle=orthogonalEdgeStyle;rounded=0;orthogonalLoop=1;jettySize=auto;html=1;entryX=0.5;entryY=0;entryDx=0;entryDy=0;" edge="1" parent="WIyWlLk6GJQsqaUBKTNV-1" source="nywED3WVq3rmi00gd_Ra-36" target="nywED3WVq3rmi00gd_Ra-45">
          <mxGeometry relative="1" as="geometry" />
        </mxCell>
        <mxCell id="nywED3WVq3rmi00gd_Ra-55" style="edgeStyle=orthogonalEdgeStyle;rounded=0;orthogonalLoop=1;jettySize=auto;html=1;entryX=0.5;entryY=0;entryDx=0;entryDy=0;" edge="1" parent="WIyWlLk6GJQsqaUBKTNV-1" source="nywED3WVq3rmi00gd_Ra-36" target="nywED3WVq3rmi00gd_Ra-46">
          <mxGeometry relative="1" as="geometry" />
        </mxCell>
        <mxCell id="nywED3WVq3rmi00gd_Ra-56" style="edgeStyle=orthogonalEdgeStyle;rounded=0;orthogonalLoop=1;jettySize=auto;html=1;" edge="1" parent="WIyWlLk6GJQsqaUBKTNV-1" source="nywED3WVq3rmi00gd_Ra-36" target="nywED3WVq3rmi00gd_Ra-47">
          <mxGeometry relative="1" as="geometry" />
        </mxCell>
        <mxCell id="nywED3WVq3rmi00gd_Ra-59" style="edgeStyle=orthogonalEdgeStyle;rounded=0;orthogonalLoop=1;jettySize=auto;html=1;" edge="1" parent="WIyWlLk6GJQsqaUBKTNV-1" source="nywED3WVq3rmi00gd_Ra-36" target="nywED3WVq3rmi00gd_Ra-58">
          <mxGeometry relative="1" as="geometry" />
        </mxCell>
        <mxCell id="nywED3WVq3rmi00gd_Ra-62" style="edgeStyle=orthogonalEdgeStyle;rounded=0;orthogonalLoop=1;jettySize=auto;html=1;" edge="1" parent="WIyWlLk6GJQsqaUBKTNV-1" source="nywED3WVq3rmi00gd_Ra-36" target="nywED3WVq3rmi00gd_Ra-61">
          <mxGeometry relative="1" as="geometry" />
        </mxCell>
        <mxCell id="nywED3WVq3rmi00gd_Ra-63" style="edgeStyle=orthogonalEdgeStyle;rounded=0;orthogonalLoop=1;jettySize=auto;html=1;" edge="1" parent="WIyWlLk6GJQsqaUBKTNV-1" source="nywED3WVq3rmi00gd_Ra-36" target="nywED3WVq3rmi00gd_Ra-60">
          <mxGeometry relative="1" as="geometry" />
        </mxCell>
        <mxCell id="nywED3WVq3rmi00gd_Ra-36" value="Proxmox Virtual" style="whiteSpace=wrap;html=1;aspect=fixed;" vertex="1" parent="WIyWlLk6GJQsqaUBKTNV-1">
          <mxGeometry x="330" y="330" width="80" height="80" as="geometry" />
        </mxCell>
        <mxCell id="nywED3WVq3rmi00gd_Ra-44" style="edgeStyle=orthogonalEdgeStyle;rounded=0;orthogonalLoop=1;jettySize=auto;html=1;entryX=1.003;entryY=0.605;entryDx=0;entryDy=0;entryPerimeter=0;" edge="1" parent="WIyWlLk6GJQsqaUBKTNV-1" source="nywED3WVq3rmi00gd_Ra-28" target="nywED3WVq3rmi00gd_Ra-36">
          <mxGeometry relative="1" as="geometry" />
        </mxCell>
        <mxCell id="nywED3WVq3rmi00gd_Ra-66" style="edgeStyle=orthogonalEdgeStyle;rounded=0;orthogonalLoop=1;jettySize=auto;html=1;entryX=1;entryY=0.5;entryDx=0;entryDy=0;" edge="1" parent="WIyWlLk6GJQsqaUBKTNV-1" source="nywED3WVq3rmi00gd_Ra-45" target="nywED3WVq3rmi00gd_Ra-57">
          <mxGeometry relative="1" as="geometry" />
        </mxCell>
        <mxCell id="nywED3WVq3rmi00gd_Ra-45" value="Debian Server" style="rhombus;whiteSpace=wrap;html=1;" vertex="1" parent="WIyWlLk6GJQsqaUBKTNV-1">
          <mxGeometry x="430" y="530" width="90" height="90" as="geometry" />
        </mxCell>
        <mxCell id="nywED3WVq3rmi00gd_Ra-65" style="edgeStyle=orthogonalEdgeStyle;rounded=0;orthogonalLoop=1;jettySize=auto;html=1;entryX=0.5;entryY=0;entryDx=0;entryDy=0;" edge="1" parent="WIyWlLk6GJQsqaUBKTNV-1" source="nywED3WVq3rmi00gd_Ra-46" target="nywED3WVq3rmi00gd_Ra-57">
          <mxGeometry relative="1" as="geometry" />
        </mxCell>
        <mxCell id="nywED3WVq3rmi00gd_Ra-46" value="Debian Server" style="rhombus;whiteSpace=wrap;html=1;" vertex="1" parent="WIyWlLk6GJQsqaUBKTNV-1">
          <mxGeometry x="325" y="530" width="90" height="90" as="geometry" />
        </mxCell>
        <mxCell id="nywED3WVq3rmi00gd_Ra-64" style="edgeStyle=orthogonalEdgeStyle;rounded=0;orthogonalLoop=1;jettySize=auto;html=1;entryX=0;entryY=0.5;entryDx=0;entryDy=0;" edge="1" parent="WIyWlLk6GJQsqaUBKTNV-1" source="nywED3WVq3rmi00gd_Ra-47" target="nywED3WVq3rmi00gd_Ra-57">
          <mxGeometry relative="1" as="geometry" />
        </mxCell>
        <mxCell id="nywED3WVq3rmi00gd_Ra-47" value="Debian Server" style="rhombus;whiteSpace=wrap;html=1;" vertex="1" parent="WIyWlLk6GJQsqaUBKTNV-1">
          <mxGeometry x="220" y="530" width="90" height="90" as="geometry" />
        </mxCell>
        <mxCell id="nywED3WVq3rmi00gd_Ra-68" style="edgeStyle=orthogonalEdgeStyle;rounded=0;orthogonalLoop=1;jettySize=auto;html=1;entryX=0.5;entryY=0;entryDx=0;entryDy=0;" edge="1" parent="WIyWlLk6GJQsqaUBKTNV-1" source="nywED3WVq3rmi00gd_Ra-57" target="nywED3WVq3rmi00gd_Ra-67">
          <mxGeometry relative="1" as="geometry" />
        </mxCell>
        <mxCell id="nywED3WVq3rmi00gd_Ra-57" value="Docker Swarm" style="rounded=1;whiteSpace=wrap;html=1;" vertex="1" parent="WIyWlLk6GJQsqaUBKTNV-1">
          <mxGeometry x="310" y="660" width="120" height="60" as="geometry" />
        </mxCell>
        <mxCell id="nywED3WVq3rmi00gd_Ra-58" value="Ubuntu Client" style="shape=parallelogram;perimeter=parallelogramPerimeter;whiteSpace=wrap;html=1;fixedSize=1;" vertex="1" parent="WIyWlLk6GJQsqaUBKTNV-1">
          <mxGeometry x="580" y="280" width="120" height="60" as="geometry" />
        </mxCell>
        <mxCell id="nywED3WVq3rmi00gd_Ra-60" value="Ubuntu Client" style="shape=parallelogram;perimeter=parallelogramPerimeter;whiteSpace=wrap;html=1;fixedSize=1;" vertex="1" parent="WIyWlLk6GJQsqaUBKTNV-1">
          <mxGeometry x="570" y="370" width="120" height="60" as="geometry" />
        </mxCell>
        <mxCell id="nywED3WVq3rmi00gd_Ra-61" value="Ubuntu Client" style="shape=parallelogram;perimeter=parallelogramPerimeter;whiteSpace=wrap;html=1;fixedSize=1;" vertex="1" parent="WIyWlLk6GJQsqaUBKTNV-1">
          <mxGeometry x="100" y="340" width="120" height="60" as="geometry" />
        </mxCell>
        <mxCell id="nywED3WVq3rmi00gd_Ra-70" style="edgeStyle=orthogonalEdgeStyle;rounded=0;orthogonalLoop=1;jettySize=auto;html=1;entryX=0.5;entryY=0;entryDx=0;entryDy=0;" edge="1" parent="WIyWlLk6GJQsqaUBKTNV-1" source="nywED3WVq3rmi00gd_Ra-67" target="nywED3WVq3rmi00gd_Ra-69">
          <mxGeometry relative="1" as="geometry" />
        </mxCell>
        <mxCell id="nywED3WVq3rmi00gd_Ra-67" value="Portainer" style="rounded=1;whiteSpace=wrap;html=1;" vertex="1" parent="WIyWlLk6GJQsqaUBKTNV-1">
          <mxGeometry x="310" y="760" width="120" height="60" as="geometry" />
        </mxCell>
        <mxCell id="nywED3WVq3rmi00gd_Ra-69" value="BIND9 DNS HA" style="shape=hexagon;perimeter=hexagonPerimeter2;whiteSpace=wrap;html=1;fixedSize=1;" vertex="1" parent="WIyWlLk6GJQsqaUBKTNV-1">
          <mxGeometry x="310" y="860" width="120" height="80" as="geometry" />
        </mxCell>
      </root>
    </mxGraphModel>
  </diagram>
</mxfile>
